<svg width="256" height="256" viewBox="0 0 256 256" fill="none" xmlns="http://www.w3.org/2000/svg">
  <defs>
    <linearGradient id="bg" x1="36" y1="24" x2="220" y2="232" gradientUnits="userSpaceOnUse">
      <stop stop-color="#FF7B54"/>
      <stop offset="1" stop-color="#B42318"/>
    </linearGradient>
    <linearGradient id="stack" x1="132" y1="68" x2="202" y2="188" gradientUnits="userSpaceOnUse">
      <stop stop-color="#FFE0D0"/>
      <stop offset="1" stop-color="#FFFFFF"/>
    </linearGradient>
    <filter id="shadow" x="20" y="20" width="216" height="216" filterUnits="userSpaceOnUse" color-interpolation-filters="sRGB">
      <feFlood flood-opacity="0" result="BackgroundImageFix"/>
      <feColorMatrix in="SourceAlpha" type="matrix" values="0 0 0 0 0 0 0 0 0 0 0 0 0 0 0 0 0 0 127 0" result="hardAlpha"/>
      <feOffset dy="10"/>
      <feGaussianBlur stdDeviation="10"/>
      <feComposite in2="hardAlpha" operator="out"/>
      <feColorMatrix type="matrix" values="0 0 0 0 0.392157 0 0 0 0 0.0588235 0 0 0 0 0.0784314 0 0 0 0.2 0"/>
      <feBlend mode="normal" in2="BackgroundImageFix" result="effect1_dropShadow_1_2"/>
      <feBlend mode="normal" in="SourceGraphic" in2="effect1_dropShadow_1_2" result="shape"/>
    </filter>
  </defs>
  <rect x="16" y="16" width="224" height="224" rx="52" fill="url(#bg)"/>
  <g filter="url(#shadow)">
    <path d="M80 72C80 64.268 86.268 58 94 58H136C143.732 58 150 64.268 150 72V86H105C98.3726 86 93 91.3726 93 98V112H146V132H93V158C93 164.627 98.3726 170 105 170H150V184C150 191.732 143.732 198 136 198H94C86.268 198 80 191.732 80 184V72Z" fill="white"/>
    <path d="M162 84C162 76.268 168.268 70 176 70C183.732 70 190 76.268 190 84C190 91.732 183.732 98 176 98C168.268 98 162 91.732 162 84Z" fill="#FFD2BF"/>
    <path d="M150 97C150 88.1634 161.64 81 176 81C190.36 81 202 88.1634 202 97C202 105.837 190.36 113 176 113C161.64 113 150 105.837 150 97Z" fill="url(#stack)"/>
    <path d="M154 118C154 115.791 155.791 114 158 114H194C196.209 114 198 115.791 198 118V125C198 132.732 188.15 139 176 139C163.85 139 154 132.732 154 125V118Z" fill="#FFECE3"/>
    <path d="M150 140C150 131.163 161.64 124 176 124C190.36 124 202 131.163 202 140C202 148.837 190.36 156 176 156C161.64 156 150 148.837 150 140Z" fill="url(#stack)"/>
    <path d="M154 160C154 157.791 155.791 156 158 156H194C196.209 156 198 157.791 198 160V167C198 174.732 188.15 181 176 181C163.85 181 154 174.732 154 167V160Z" fill="#FFECE3"/>
    <path d="M150 182C150 173.163 161.64 166 176 166C190.36 166 202 173.163 202 182C202 190.837 190.36 198 176 198C161.64 198 150 190.837 150 182Z" fill="url(#stack)"/>
  </g>
</svg>
